<svg width="388" height="251" viewBox="0 0 388 251" fill="none" xmlns="http://www.w3.org/2000/svg">
<path d="M347.5 13H40.875C33.4821 13 26.392 15.6339 21.1644 20.3223C15.9368 25.0107 13 31.3696 13 38V213C13 219.63 15.9368 225.989 21.1644 230.678C26.392 235.366 33.4821 238 40.875 238H347.5C354.893 238 361.983 235.366 367.211 230.678C372.438 225.989 375.375 219.63 375.375 213V38C375.375 31.3696 372.438 25.0107 367.211 20.3223C361.983 15.6339 354.893 13 347.5 13Z" stroke="#282C34" stroke-width="25" stroke-linecap="round" stroke-linejoin="round"/>
<path d="M173.187 175.5V75.5L125.687 125.5L78.1875 75.5V175.5" stroke="#282C34" stroke-width="25" stroke-linecap="round" stroke-linejoin="round"/>
<path d="M318.395 97.7222H310.202C308.629 97.7222 307.354 99.2015 307.354 101.026V102.474C307.354 104.299 308.629 105.778 310.202 105.778H318.395C319.968 105.778 321.243 104.299 321.243 102.474V101.026C321.243 99.2015 319.968 97.7222 318.395 97.7222Z" fill="#ABB2BF"/>
<path d="M311.45 162.167H289.369C287.796 162.167 286.521 163.646 286.521 165.471V166.918C286.521 168.743 287.796 170.222 289.369 170.222H311.45C313.023 170.222 314.299 168.743 314.299 166.918V165.471C314.299 163.646 313.023 162.167 311.45 162.167Z" fill="#98C379"/>
<path d="M276.728 162.167H247.702C246.129 162.167 244.854 163.646 244.854 165.471V166.918C244.854 168.743 246.129 170.222 247.702 170.222H276.728C278.301 170.222 279.576 168.743 279.576 166.918V165.471C279.576 163.646 278.301 162.167 276.728 162.167Z" fill="#C678DD"/>
<path d="M235.061 162.167H206.036C204.463 162.167 203.188 163.646 203.188 165.471V166.918C203.188 168.743 204.463 170.222 206.036 170.222H235.061C236.634 170.222 237.91 168.743 237.91 166.918V165.471C237.91 163.646 236.634 162.167 235.061 162.167Z" fill="#56B6C2"/>
<path d="M242.006 129.944H206.036C204.463 129.944 203.188 131.424 203.188 133.248V134.696C203.188 136.521 204.463 138 206.036 138H242.006C243.579 138 244.854 136.521 244.854 134.696V133.248C244.854 131.424 243.579 129.944 242.006 129.944Z" fill="#98C379"/>
<path d="M311.45 81.6111H240.758C239.185 81.6111 237.91 83.0904 237.91 84.9152V86.3626C237.91 88.1874 239.185 89.6667 240.758 89.6667H311.45C313.023 89.6667 314.299 88.1874 314.299 86.3626V84.9152C314.299 83.0904 313.023 81.6111 311.45 81.6111Z" fill="#98C379"/>
<path d="M228.117 81.6111H206.036C204.463 81.6111 203.188 83.0904 203.188 84.9152V86.3626C203.188 88.1874 204.463 89.6667 206.036 89.6667H228.117C229.69 89.6667 230.965 88.1874 230.965 86.3626V84.9152C230.965 83.0904 229.69 81.6111 228.117 81.6111Z" fill="#61AFEF"/>
<path d="M242.006 113.833H233.814C232.241 113.833 230.965 115.313 230.965 117.137V118.585C230.965 120.41 232.241 121.889 233.814 121.889H242.006C243.579 121.889 244.854 120.41 244.854 118.585V117.137C244.854 115.313 243.579 113.833 242.006 113.833Z" fill="#61AFEF"/>
<path d="M221.173 113.833H206.036C204.463 113.833 203.188 115.313 203.188 117.137V118.585C203.188 120.41 204.463 121.889 206.036 121.889H221.173C222.746 121.889 224.021 120.41 224.021 118.585V117.137C224.021 115.313 222.746 113.833 221.173 113.833Z" fill="#56B6C2"/>
<path d="M318.395 146.056H261.591C260.018 146.056 258.743 147.535 258.743 149.36V150.807C258.743 152.632 260.018 154.111 261.591 154.111H318.395C319.968 154.111 321.243 152.632 321.243 150.807V149.36C321.243 147.535 319.968 146.056 318.395 146.056Z" fill="#ABB2BF"/>
<path d="M248.95 146.056H226.869C225.296 146.056 224.021 147.535 224.021 149.36V150.807C224.021 152.632 225.296 154.111 226.869 154.111H248.95C250.523 154.111 251.799 152.632 251.799 150.807V149.36C251.799 147.535 250.523 146.056 248.95 146.056Z" fill="#E5C07B"/>
<path d="M214.228 146.056H206.036C204.463 146.056 203.188 147.535 203.188 149.36V150.807C203.188 152.632 204.463 154.111 206.036 154.111H214.228C215.801 154.111 217.076 152.632 217.076 150.807V149.36C217.076 147.535 215.801 146.056 214.228 146.056Z" fill="#E06C75"/>
<path d="M297.561 97.7222H268.536C266.963 97.7222 265.688 99.2015 265.688 101.026V102.474C265.688 104.299 266.963 105.778 268.536 105.778H297.561C299.134 105.778 300.41 104.299 300.41 102.474V101.026C300.41 99.2015 299.134 97.7222 297.561 97.7222Z" fill="#C678DD"/>
<path d="M255.895 97.7222H206.036C204.463 97.7222 203.188 99.2015 203.188 101.026V102.474C203.188 104.299 204.463 105.778 206.036 105.778H255.895C257.468 105.778 258.743 104.299 258.743 102.474V101.026C258.743 99.2015 257.468 97.7222 255.895 97.7222Z" fill="#E5C07B"/>
<path d="M290.617 178.278H226.869C225.296 178.278 224.021 179.757 224.021 181.582V183.029C224.021 184.854 225.296 186.333 226.869 186.333H290.617C292.19 186.333 293.465 184.854 293.465 183.029V181.582C293.465 179.757 292.19 178.278 290.617 178.278Z" fill="#E5C07B"/>
<path d="M214.228 178.278H206.036C204.463 178.278 203.188 179.757 203.188 181.582V183.029C203.188 184.854 204.463 186.333 206.036 186.333H214.228C215.801 186.333 217.076 184.854 217.076 183.029V181.582C217.076 179.757 215.801 178.278 214.228 178.278Z" fill="#C678DD"/>
<path d="M325.339 113.833H289.369C287.796 113.833 286.521 115.313 286.521 117.137V118.585C286.521 120.41 287.796 121.889 289.369 121.889H325.339C326.912 121.889 328.187 120.41 328.187 118.585V117.137C328.187 115.313 326.912 113.833 325.339 113.833Z" fill="#E06C75"/>
<path d="M325.339 129.944H289.369C287.796 129.944 286.521 131.424 286.521 133.248V134.696C286.521 136.521 287.796 138 289.369 138H325.339C326.912 138 328.187 136.521 328.187 134.696V133.248C328.187 131.424 326.912 129.944 325.339 129.944Z" fill="#61AFEF"/>
<path d="M290.617 65.5H206.036C204.463 65.5 203.188 66.9793 203.188 68.804V70.2515C203.188 72.0763 204.463 73.5556 206.036 73.5556H290.617C292.19 73.5556 293.465 72.0763 293.465 70.2515V68.804C293.465 66.9793 292.19 65.5 290.617 65.5Z" fill="#E06C75"/>
</svg>
