<svg width="208" height="128" viewBox="0 0 208 128" fill="none" xmlns="http://www.w3.org/2000/svg">
<g clip-path="url(#clip0_24_4)">
<path d="M193 5H15C9.47715 5 5 9.47715 5 15V113C5 118.523 9.47715 123 15 123H193C198.523 123 203 118.523 203 113V15C203 9.47715 198.523 5 193 5Z" stroke="black" stroke-width="10"/>
<path d="M24 98C21.7909 98 20 96.2091 20 94V34C20 31.7909 21.7909 30 24 30H38.0775C39.2926 30 40.4419 30.5524 41.201 31.5012L56.8765 51.0957C58.4778 53.0973 61.5222 53.0973 63.1235 51.0957L78.799 31.5012C79.5581 30.5524 80.7074 30 81.9225 30H96C98.2091 30 100 31.7909 100 34V94C100 96.2091 98.2091 98 96 98H84C81.7909 98 80 96.2091 80 94V70.4031C80 66.622 75.2386 64.9518 72.8765 67.9043L63.1235 80.0957C61.5222 82.0973 58.4778 82.0973 56.8765 80.0957L47.1235 67.9043C44.7614 64.9518 40 66.622 40 70.4031V94C40 96.2091 38.2091 98 36 98H24Z" fill="black"/>
<path d="M125.006 98C121.27 98 119.573 93.3324 122.438 90.9334L154 64.5L122.15 37.029C119.342 34.6075 121.055 30 124.762 30H154H183.238C186.945 30 188.658 34.6075 185.85 37.029L154 64.5L185.562 90.9334C188.427 93.3324 186.73 98 182.994 98H154H125.006Z" fill="black"/>
</g>
<defs>
<clipPath id="clip0_24_4">
<rect width="208" height="128" fill="white"/>
</clipPath>
</defs>
</svg>
